# xmcd CD database file
#
# Track frame offsets:
#	150
#	12198
#	24739
#	37180
#	48775
#	60401
#	70411
#	83097
#	97312
#	109987
#	122585
#	134214
#
# Disc length: 1972 seconds
#
# Revision: 0
# Processed by: cddbd v1.5.2PL0 Copyright (c) Steve Scherf et al.
# Submitted via: CDex 1.51
#
DISCID=ab07b20c
DTITLE=Jimmy Reed - I'm Jimmy Reed_CD1
DYEAR=2011
DGENRE=Blues
TTITLE0=Honest, I Do
TTITLE1=Go On To School
TTITLE2=My First Plea
TTITLE3=Boogie In The Dark
TTITLE4=You Got Me Crying
TTITLE5=Aint' That Lovin' You Baby
TTITLE6=You Got Me Dizzy
TTITLE7=Little Rain
TTITLE8=Can't Stand To See You Go
TTITLE9=Roll And Rhumba
TTITLE10=You're Something Else
TTITLE11=You Don't Have To Go
EXTD=YEAR: 2011
EXTT0=
EXTT1=
EXTT2=
EXTT3=
EXTT4=
EXTT5=
EXTT6=
EXTT7=
EXTT8=
EXTT9=
EXTT10=
EXTT11=
PLAYORDER=
